<svg width="32" height="32" viewBox="0 0 32 32" fill="none" xmlns="http://www.w3.org/2000/svg">
<path d="M16 13.16C15.8674 13.16 15.7402 13.2127 15.6464 13.3064C15.5527 13.4002 15.5 13.5274 15.5 13.66V17.66C15.5 17.7926 15.5527 17.9198 15.6464 18.0136C15.7402 18.1073 15.8674 18.16 16 18.16C16.1326 18.16 16.2598 18.1073 16.3536 18.0136C16.4473 17.9198 16.5 17.7926 16.5 17.66V13.66C16.5 13.5274 16.4473 13.4002 16.3536 13.3064C16.2598 13.2127 16.1326 13.16 16 13.16ZM15 12.3H17C17.1326 12.3 17.2598 12.2473 17.3536 12.1536C17.4473 12.0598 17.5 11.9326 17.5 11.8C17.5 11.6674 17.4473 11.5402 17.3536 11.4464C17.2598 11.3527 17.1326 11.3 17 11.3H16.5V8C16.5 7.86739 16.4473 7.74021 16.3536 7.64645C16.2598 7.55268 16.1326 7.5 16 7.5C15.8674 7.5 15.7402 7.55268 15.6464 7.64645C15.5527 7.74021 15.5 7.86739 15.5 8V11.3H15C14.8674 11.3 14.7402 11.3527 14.6464 11.4464C14.5527 11.5402 14.5 11.6674 14.5 11.8C14.5 11.9326 14.5527 12.0598 14.6464 12.1536C14.7402 12.2473 14.8674 12.3 15 12.3ZM22 14C21.8674 14 21.7402 14.0527 21.6464 14.1464C21.5527 14.2402 21.5 14.3674 21.5 14.5V17.7C21.5 17.8326 21.5527 17.9598 21.6464 18.0536C21.7402 18.1473 21.8674 18.2 22 18.2C22.1326 18.2 22.2598 18.1473 22.3536 18.0536C22.4473 17.9598 22.5 17.8326 22.5 17.7V14.52C22.5027 14.4527 22.4918 14.3855 22.4678 14.3225C22.4439 14.2595 22.4075 14.202 22.3608 14.1534C22.3141 14.1049 22.2581 14.0662 22.1961 14.0399C22.1341 14.0135 22.0674 13.9999 22 14ZM21 13.12H23C23.1326 13.12 23.2598 13.0673 23.3536 12.9736C23.4473 12.8798 23.5 12.7526 23.5 12.62C23.5 12.4874 23.4473 12.3602 23.3536 12.2664C23.2598 12.1727 23.1326 12.12 23 12.12H22.54V8C22.54 7.86739 22.4873 7.74021 22.3936 7.64645C22.2998 7.55268 22.1726 7.5 22.04 7.5C21.9074 7.5 21.7802 7.55268 21.6864 7.64645C21.5927 7.74021 21.54 7.86739 21.54 8V12H21C20.8674 12 20.7402 12.0527 20.6464 12.1464C20.5527 12.2402 20.5 12.3674 20.5 12.5C20.5 12.6326 20.5527 12.7598 20.6464 12.8536C20.7402 12.9473 20.8674 13 21 13V13.12ZM9 14.16H11C11.1326 14.16 11.2598 14.1073 11.3536 14.0136C11.4473 13.9198 11.5 13.7926 11.5 13.66C11.5 13.5274 11.4473 13.4002 11.3536 13.3064C11.2598 13.2127 11.1326 13.16 11 13.16H10.5V8C10.5 7.86739 10.4473 7.74021 10.3536 7.64645C10.2598 7.55268 10.1326 7.5 10 7.5C9.86739 7.5 9.74021 7.55268 9.64645 7.64645C9.55268 7.74021 9.5 7.86739 9.5 8V13.16H9C8.86739 13.16 8.74021 13.2127 8.64645 13.3064C8.55268 13.4002 8.5 13.5274 8.5 13.66C8.5 13.7926 8.55268 13.9198 8.64645 14.0136C8.74021 14.1073 8.86739 14.16 9 14.16ZM10 15.18C9.86739 15.18 9.74021 15.2327 9.64645 15.3264C9.55268 15.4202 9.5 15.5474 9.5 15.68V17.68C9.5 17.8126 9.55268 17.9398 9.64645 18.0336C9.74021 18.1273 9.86739 18.18 10 18.18C10.1326 18.18 10.2598 18.1273 10.3536 18.0336C10.4473 17.9398 10.5 17.8126 10.5 17.68V15.68C10.5 15.5474 10.4473 15.4202 10.3536 15.3264C10.2598 15.2327 10.1326 15.18 10 15.18Z" fill="white"/>
<path d="M29.28 2.28H2.71997C2.45475 2.28 2.2004 2.38536 2.01286 2.57289C1.82533 2.76043 1.71997 3.01478 1.71997 3.28V22.48C1.71997 22.7452 1.82533 22.9996 2.01286 23.1871C2.2004 23.3746 2.45475 23.48 2.71997 23.48H29.28C29.5452 23.48 29.7995 23.3746 29.9871 23.1871C30.1746 22.9996 30.28 22.7452 30.28 22.48V3.28C30.28 3.01478 30.1746 2.76043 29.9871 2.57289C29.7995 2.38536 29.5452 2.28 29.28 2.28ZM28.28 21.48H3.71997V4.28H28.28V21.48ZM11 27.5H21C21.2652 27.5 21.5195 27.3946 21.7071 27.2071C21.8946 27.0196 22 26.7652 22 26.5C22 26.2348 21.8946 25.9804 21.7071 25.7929C21.5195 25.6054 21.2652 25.5 21 25.5H11C10.7348 25.5 10.4804 25.6054 10.2929 25.7929C10.1053 25.9804 9.99997 26.2348 9.99997 26.5C9.99997 26.7652 10.1053 27.0196 10.2929 27.2071C10.4804 27.3946 10.7348 27.5 11 27.5Z" fill="white"/>
</svg>
