<svg width="32" height="32" viewBox="0 0 32 32" fill="none" xmlns="http://www.w3.org/2000/svg">
<path d="M6.44683 2.18124H25.5C25.7906 2.21249 26.0812 2.23124 26.3625 2.30937C27.125 2.50624 27.8187 2.96249 28.3031 3.58437C28.6281 3.99374 28.8593 4.47499 28.9781 4.98437C29.0625 5.32812 29.0812 5.68124 29.0781 6.03437V25.6531C29.0781 26.0375 29.0906 26.4219 29.0218 26.8031C28.8812 27.6219 28.4468 28.3812 27.8187 28.9219C27.3406 29.3344 26.7562 29.6219 26.1343 29.7406C25.9343 29.7844 25.7312 29.7844 25.5312 29.8187H6.51558C6.33433 29.7906 6.14683 29.7937 5.96558 29.7594C5.11245 29.625 4.3187 29.1687 3.7687 28.5094C3.24995 27.8969 2.94995 27.1062 2.9187 26.3031V5.69999C2.95308 4.80624 3.32183 3.92812 3.95308 3.29062C4.54058 2.68437 5.3437 2.29374 6.18433 2.21249C6.27183 2.20624 6.35933 2.19999 6.44683 2.18124ZM8.8312 8.22499C8.45933 8.23749 8.12808 8.57499 8.14058 8.94999C8.12183 9.34374 8.47808 9.69374 8.8687 9.68437H23.125C23.3281 9.68437 23.5312 9.59999 23.6687 9.44687C23.8843 9.21874 23.9187 8.84687 23.7562 8.57812C23.6281 8.35937 23.3781 8.22187 23.125 8.22499C18.3593 8.22499 13.5937 8.22187 8.8312 8.22499ZM8.7062 14.1781C8.53433 14.2187 8.3812 14.3187 8.27808 14.4594C8.09683 14.7 8.0937 15.0562 8.2687 15.3031C8.40308 15.5 8.63433 15.6187 8.87183 15.6187H16.6875C16.9281 15.625 17.1687 15.5094 17.3062 15.3125C17.4843 15.0719 17.4875 14.7156 17.3125 14.4719C17.1812 14.275 16.95 14.1562 16.7156 14.1562H8.87183C8.81558 14.1625 8.75933 14.1687 8.7062 14.1781ZM22.3718 14.1812C22.1156 14.2156 21.8687 14.2937 21.6406 14.4156C21.2343 14.6281 20.9375 14.9906 20.6156 15.3062C18.5218 17.4031 16.425 19.4969 14.3312 21.5906C14.2343 21.6937 14.175 21.8312 14.1531 21.9719C13.9 23.4562 13.6468 24.9406 13.3906 26.4219C13.375 26.5281 13.375 26.6406 13.4031 26.7469C13.4875 27.0937 13.8562 27.3375 14.2093 27.2781C15.65 27.0344 17.0937 26.7844 18.5343 26.5375C18.7375 26.5125 18.9531 26.4625 19.0968 26.3094L25.8812 19.525C26.4218 18.9781 26.6343 18.1375 26.4187 17.4031C26.3156 17.0312 26.1093 16.6906 25.8312 16.425L24.1718 14.7656C23.7062 14.3125 23.0218 14.0906 22.3718 14.1812ZM8.8062 19.9969C8.50308 20.0156 8.23433 20.25 8.16245 20.5406C8.12495 20.7062 8.13745 20.8875 8.21245 21.0437C8.31245 21.2531 8.51558 21.4062 8.7437 21.4437C8.8187 21.4562 8.89683 21.45 8.97183 21.4531H12.0906C12.3468 21.45 12.5875 21.2937 12.7062 21.0719C12.8281 20.8469 12.8187 20.5562 12.6843 20.3406C12.5531 20.1312 12.3125 19.9906 12.0625 19.9969C10.9781 20 9.89058 19.9969 8.8062 19.9969Z" fill="white"/>
<path d="M22.1719 15.8156C22.4313 15.5563 22.8938 15.5563 23.1563 15.8156C23.6688 16.325 24.1782 16.8375 24.6907 17.3469C24.7969 17.4562 24.9188 17.5531 24.9813 17.6969C25.1157 17.9687 25.0469 18.3156 24.8313 18.5219L18.2407 25.1125C17.1625 25.2969 16.0813 25.4812 15.0032 25.6656C15.1875 24.5875 15.3688 23.5094 15.5594 22.4312C17.7594 20.225 19.9688 18.0219 22.1719 15.8156ZM22.2563 16.5156C21.9688 16.5656 21.7282 16.8094 21.6782 17.0969C21.6313 17.3312 21.7125 17.5844 21.8813 17.75L22.9032 18.7719C23.0157 18.8875 23.1657 18.9719 23.3282 18.9937C23.5875 19.0344 23.8657 18.925 24.0219 18.7125C24.1938 18.4875 24.2125 18.1563 24.0719 17.9125C24 17.7844 23.8813 17.6969 23.7844 17.5906L22.8907 16.6969C22.725 16.5344 22.4813 16.475 22.2563 16.5156ZM20.7594 17.9594C20.5 18.0313 20.2938 18.2594 20.25 18.525C20.2063 18.7531 20.2782 19.0031 20.4438 19.1656C20.8032 19.5219 21.1594 19.8812 21.5157 20.2375C21.7438 20.4562 22.1219 20.4906 22.3907 20.325C22.6344 20.1781 22.775 19.8781 22.7313 19.5969C22.7125 19.4406 22.6344 19.2937 22.5219 19.1812C22.1719 18.8312 21.825 18.4812 21.475 18.1344C21.2907 17.9531 21.0063 17.8875 20.7594 17.9594Z" fill="white"/>
</svg>
